<svg width="512" height="512" viewBox="0 0 512 512" xmlns="http://www.w3.org/2000/svg">
<defs><clipPath id="ic"><rect width="512" height="512" rx="114"/></clipPath></defs>
<g clip-path="url(#ic)">
<rect width="512" height="512" fill="#07041A"/>
<circle cx="256" cy="256" r="246" fill="#0A0620"/>
<circle cx="256" cy="256" r="180" fill="#0E092A"/>
<circle cx="256" cy="256" r="110" fill="#120D34"/>
<circle cx="256" cy="256" r="58" fill="#18113C"/>
<circle cx="256" cy="256" r="220" fill="none" stroke="#24104A" stroke-width="0.8"/>
<circle cx="256" cy="256" r="166" fill="none" stroke="#321860" stroke-width="0.5"/>
<circle cx="256" cy="256" r="82" fill="none" stroke="#3C1D70" stroke-width="0.5"/>
<line x1="256" y1="256" x2="450" y2="176" stroke="#35115E" stroke-width="1.2" opacity="0.32"/>
<line x1="256" y1="256" x2="337" y2="62" stroke="#35115E" stroke-width="1.2" opacity="0.32"/>
<line x1="256" y1="256" x2="175" y2="62" stroke="#35115E" stroke-width="1.2" opacity="0.32"/>
<line x1="256" y1="256" x2="62" y2="175" stroke="#35115E" stroke-width="1.2" opacity="0.32"/>
<line x1="256" y1="256" x2="62" y2="337" stroke="#35115E" stroke-width="1.2" opacity="0.32"/>
<line x1="256" y1="256" x2="175" y2="450" stroke="#35115E" stroke-width="1.2" opacity="0.32"/>
<line x1="256" y1="256" x2="337" y2="450" stroke="#35115E" stroke-width="1.2" opacity="0.32"/>
<line x1="256" y1="256" x2="450" y2="337" stroke="#35115E" stroke-width="1.2" opacity="0.32"/>
<polygon points="376,256 341,171 256,136 171,171 136,256 171,341 256,376 341,341" fill="none" stroke="#2B0E58" stroke-width="1" opacity="0.6"/>
<line x1="256" y1="256" x2="376" y2="256" stroke="#6D28D9" stroke-width="2.4" opacity="0.78"/>
<line x1="256" y1="256" x2="341" y2="171" stroke="#6D28D9" stroke-width="2.4" opacity="0.78"/>
<line x1="256" y1="256" x2="256" y2="136" stroke="#6D28D9" stroke-width="2.4" opacity="0.78"/>
<line x1="256" y1="256" x2="171" y2="171" stroke="#6D28D9" stroke-width="2.4" opacity="0.78"/>
<line x1="256" y1="256" x2="136" y2="256" stroke="#6D28D9" stroke-width="2.4" opacity="0.78"/>
<line x1="256" y1="256" x2="171" y2="341" stroke="#6D28D9" stroke-width="2.4" opacity="0.78"/>
<line x1="256" y1="256" x2="256" y2="376" stroke="#6D28D9" stroke-width="2.4" opacity="0.78"/>
<line x1="256" y1="256" x2="341" y2="341" stroke="#6D28D9" stroke-width="2.4" opacity="0.78"/>
<line x1="376" y1="256" x2="432" y2="183" stroke="#4C1D95" stroke-width="1.4" opacity="0.6"/>
<line x1="376" y1="256" x2="432" y2="329" stroke="#4C1D95" stroke-width="1.4" opacity="0.6"/>
<line x1="341" y1="171" x2="432" y2="183" stroke="#4C1D95" stroke-width="1.4" opacity="0.6"/>
<line x1="341" y1="171" x2="329" y2="81" stroke="#4C1D95" stroke-width="1.4" opacity="0.6"/>
<line x1="256" y1="136" x2="329" y2="81" stroke="#4C1D95" stroke-width="1.4" opacity="0.6"/>
<line x1="256" y1="136" x2="183" y2="81" stroke="#4C1D95" stroke-width="1.4" opacity="0.6"/>
<line x1="171" y1="171" x2="183" y2="81" stroke="#4C1D95" stroke-width="1.4" opacity="0.6"/>
<line x1="171" y1="171" x2="81" y2="183" stroke="#4C1D95" stroke-width="1.4" opacity="0.6"/>
<line x1="136" y1="256" x2="81" y2="183" stroke="#4C1D95" stroke-width="1.4" opacity="0.6"/>
<line x1="136" y1="256" x2="81" y2="329" stroke="#4C1D95" stroke-width="1.4" opacity="0.6"/>
<line x1="171" y1="341" x2="81" y2="329" stroke="#4C1D95" stroke-width="1.4" opacity="0.6"/>
<line x1="171" y1="341" x2="183" y2="432" stroke="#4C1D95" stroke-width="1.4" opacity="0.6"/>
<line x1="256" y1="376" x2="183" y2="432" stroke="#4C1D95" stroke-width="1.4" opacity="0.6"/>
<line x1="256" y1="376" x2="329" y2="432" stroke="#4C1D95" stroke-width="1.4" opacity="0.6"/>
<line x1="341" y1="341" x2="329" y2="432" stroke="#4C1D95" stroke-width="1.4" opacity="0.6"/>
<line x1="341" y1="341" x2="432" y2="329" stroke="#4C1D95" stroke-width="1.4" opacity="0.6"/>
<line x1="432" y1="183" x2="329" y2="81" stroke="#321264" stroke-width="1.1" opacity="0.55"/>
<line x1="329" y1="81" x2="183" y2="81" stroke="#321264" stroke-width="1.1" opacity="0.55"/>
<line x1="183" y1="81" x2="81" y2="183" stroke="#321264" stroke-width="1.1" opacity="0.55"/>
<line x1="81" y1="183" x2="81" y2="329" stroke="#321264" stroke-width="1.1" opacity="0.55"/>
<line x1="81" y1="329" x2="183" y2="432" stroke="#321264" stroke-width="1.1" opacity="0.55"/>
<line x1="183" y1="432" x2="329" y2="432" stroke="#321264" stroke-width="1.1" opacity="0.55"/>
<line x1="329" y1="432" x2="432" y2="329" stroke="#321264" stroke-width="1.1" opacity="0.55"/>
<line x1="432" y1="329" x2="432" y2="183" stroke="#321264" stroke-width="1.1" opacity="0.55"/>
<circle cx="432" cy="183" r="13" fill="#190840" stroke="#6D28D9" stroke-width="1.5"/><circle cx="432" cy="183" r="7" fill="#5B21B6"/>
<circle cx="329" cy="81" r="13" fill="#190840" stroke="#6D28D9" stroke-width="1.5"/><circle cx="329" cy="81" r="7" fill="#5B21B6"/>
<circle cx="183" cy="81" r="13" fill="#190840" stroke="#6D28D9" stroke-width="1.5"/><circle cx="183" cy="81" r="7" fill="#5B21B6"/>
<circle cx="81" cy="183" r="13" fill="#190840" stroke="#6D28D9" stroke-width="1.5"/><circle cx="81" cy="183" r="7" fill="#5B21B6"/>
<circle cx="81" cy="329" r="13" fill="#190840" stroke="#6D28D9" stroke-width="1.5"/><circle cx="81" cy="329" r="7" fill="#5B21B6"/>
<circle cx="183" cy="432" r="13" fill="#190840" stroke="#6D28D9" stroke-width="1.5"/><circle cx="183" cy="432" r="7" fill="#5B21B6"/>
<circle cx="329" cy="432" r="13" fill="#190840" stroke="#6D28D9" stroke-width="1.5"/><circle cx="329" cy="432" r="7" fill="#5B21B6"/>
<circle cx="432" cy="329" r="13" fill="#190840" stroke="#6D28D9" stroke-width="1.5"/><circle cx="432" cy="329" r="7" fill="#5B21B6"/>
<circle cx="376" cy="256" r="20" fill="#1B0848" stroke="#9333EA" stroke-width="2.2"/><circle cx="376" cy="256" r="12" fill="#7C3AED"/><circle cx="376" cy="256" r="5.5" fill="#C084FC"/>
<circle cx="341" cy="171" r="20" fill="#1B0848" stroke="#9333EA" stroke-width="2.2"/><circle cx="341" cy="171" r="12" fill="#7C3AED"/><circle cx="341" cy="171" r="5.5" fill="#C084FC"/>
<circle cx="256" cy="136" r="20" fill="#1B0848" stroke="#9333EA" stroke-width="2.2"/><circle cx="256" cy="136" r="12" fill="#7C3AED"/><circle cx="256" cy="136" r="5.5" fill="#C084FC"/>
<circle cx="171" cy="171" r="20" fill="#1B0848" stroke="#9333EA" stroke-width="2.2"/><circle cx="171" cy="171" r="12" fill="#7C3AED"/><circle cx="171" cy="171" r="5.5" fill="#C084FC"/>
<circle cx="136" cy="256" r="20" fill="#1B0848" stroke="#9333EA" stroke-width="2.2"/><circle cx="136" cy="256" r="12" fill="#7C3AED"/><circle cx="136" cy="256" r="5.5" fill="#C084FC"/>
<circle cx="171" cy="341" r="20" fill="#1B0848" stroke="#9333EA" stroke-width="2.2"/><circle cx="171" cy="341" r="12" fill="#7C3AED"/><circle cx="171" cy="341" r="5.5" fill="#C084FC"/>
<circle cx="256" cy="376" r="20" fill="#1B0848" stroke="#9333EA" stroke-width="2.2"/><circle cx="256" cy="376" r="12" fill="#7C3AED"/><circle cx="256" cy="376" r="5.5" fill="#C084FC"/>
<circle cx="341" cy="341" r="20" fill="#1B0848" stroke="#9333EA" stroke-width="2.2"/><circle cx="341" cy="341" r="12" fill="#7C3AED"/><circle cx="341" cy="341" r="5.5" fill="#C084FC"/>
<circle cx="256" cy="256" r="50" fill="#100836" stroke="#9C40F7" stroke-width="3"/>
<circle cx="256" cy="256" r="37" fill="#260860" stroke="#B060FF" stroke-width="1.8"/>
<circle cx="256" cy="256" r="24" fill="#7C3AED"/>
<circle cx="256" cy="256" r="14" fill="#C084FC"/>
<circle cx="256" cy="256" r="7" fill="#EDBBFE"/>
<circle cx="248" cy="248" r="4" fill="rgba(255,255,255,0.58)"/>
</g>
</svg>